<?xml version="1.0" standalone="no"?>
<!DOCTYPE svg PUBLIC "-//W3C//DTD SVG 20010904//EN"
 "http://www.w3.org/TR/2001/REC-SVG-20010904/DTD/svg10.dtd">
<svg version="1.0" xmlns="http://www.w3.org/2000/svg"
 width="3000.000000pt" height="3000.000000pt" viewBox="0 0 3000.000000 3000.000000"
 preserveAspectRatio="xMidYMid meet">
<metadata>
Created by potrace 1.14, written by Peter Selinger 2001-2017
</metadata>
<g transform="translate(0.000000,3000.000000) scale(0.100000,-0.100000)"
fill="#000000" stroke="none">
<path d="M10635 28554 c0 -46 -4 -68 -13 -71 -7 -3 -196 -6 -420 -7 l-407 -1
1 -67 0 -68 -90 -1 c-50 0 -143 0 -207 1 -132 1 -126 5 -124 -87 0 -29 -2 -53
-5 -54 -3 0 -127 0 -277 -1 -307 0 -282 8 -279 -85 1 -47 -1 -53 -19 -54 -11
0 -74 -1 -140 0 l-121 0 1 -70 c1 -41 -3 -69 -10 -70 -5 0 -67 -1 -137 -1 -83
-1 -128 -5 -131 -12 -2 -6 -3 -37 -2 -68 1 -46 -2 -58 -14 -59 -9 0 -104 -1
-211 -2 l-195 -2 0 -69 0 -69 -137 -1 c-155 0 -149 3 -144 -79 3 -36 -1 -50
-13 -55 -9 -5 -65 -7 -126 -6 -60 1 -117 0 -126 -2 -12 -3 -15 -18 -15 -69 1
-38 -3 -65 -9 -66 -5 -1 -35 -2 -65 -4 -30 -1 -58 -3 -61 -4 -3 0 -5 -30 -4
-66 0 -39 -3 -65 -10 -66 -5 -1 -64 -2 -130 -3 -66 -2 -125 -3 -131 -4 -7 -1
-10 -25 -10 -62 1 -33 -1 -64 -4 -68 -3 -4 -66 -7 -140 -7 l-135 0 0 -68 c0
-38 -4 -68 -10 -68 -5 -1 -32 -3 -60 -4 -27 -1 -55 -3 -62 -4 -8 -1 -11 -22
-9 -66 1 -36 0 -66 -3 -66 -4 -1 -62 -2 -131 -3 -69 -1 -130 -5 -136 -9 -7 -4
-11 -31 -10 -67 1 -35 -3 -61 -9 -61 -5 -1 -37 -2 -70 -3 l-60 -1 1 -68 c0
-74 -2 -77 -71 -73 -61 3 -75 -7 -73 -57 3 -91 15 -83 -139 -83 l-138 0 0 -64
c0 -36 -4 -68 -8 -71 -5 -4 -35 -6 -68 -5 -33 1 -60 -3 -61 -9 0 -5 -2 -37 -2
-70 l-2 -60 -67 0 c-75 1 -77 -1 -73 -70 3 -62 -8 -76 -57 -74 -87 3 -84 5
-84 -53 -1 -95 4 -89 -61 -87 -33 1 -64 -1 -69 -4 -6 -4 -10 -31 -9 -62 3 -59
-4 -78 -25 -75 -8 1 -37 2 -65 1 l-51 -1 2 -52 c2 -84 -2 -90 -49 -88 -99 4
-95 6 -94 -52 1 -94 6 -88 -70 -88 l-68 0 1 -122 c0 -68 -1 -131 -3 -140 -4
-15 -16 -18 -72 -18 l-67 0 1 -57 c1 -32 0 -64 -2 -70 -3 -9 -26 -13 -72 -13
l-67 0 2 -59 c1 -33 -1 -64 -4 -70 -4 -5 -36 -11 -71 -13 l-65 -3 0 -135 0
-135 -70 -5 -70 -5 -1 -125 c-1 -69 -2 -131 -3 -137 -1 -9 -22 -13 -69 -13
l-69 0 1 -67 1 -68 -70 -5 -70 -5 0 -202 c-1 -111 -3 -204 -6 -207 -3 -3 -35
-6 -70 -7 l-65 -1 0 -205 c1 -127 -3 -207 -9 -211 -5 -4 -37 -7 -70 -7 l-60 0
0 -490 0 -490 60 -1 c33 -1 65 -2 71 -3 6 -1 10 -27 9 -69 l-2 -68 139 1 c118
1 138 -1 139 -15 1 -8 2 -40 3 -70 l1 -55 208 0 c132 0 207 -3 208 -10 0 -5 2
-37 2 -70 l2 -60 418 -1 c370 0 417 2 418 15 1 9 2 37 3 63 0 25 5 50 9 54 5
5 124 9 265 10 141 1 264 2 272 3 13 1 16 15 15 69 l0 67 208 0 c134 0 207 3
208 10 1 5 2 37 3 70 l1 60 135 0 c74 -1 138 3 141 7 3 5 4 35 3 68 -2 33 0
61 4 61 4 1 66 3 137 4 72 1 132 3 135 4 3 0 5 31 5 69 l0 67 135 1 c74 1 138
2 141 3 3 1 5 31 5 69 l-1 67 68 0 c75 -1 68 -9 71 90 l1 50 135 0 c105 0 136
3 141 14 3 7 5 39 4 71 l-1 57 68 -1 c37 -1 68 1 69 4 4 27 4 122 0 128 -3 5
-67 9 -142 9 l-136 -1 1 -68 c1 -37 -1 -68 -4 -69 -3 0 -97 -2 -210 -2 l-205
-2 0 -67 c0 -64 -1 -67 -25 -70 -14 -2 -266 -3 -560 -2 l-535 0 0 70 0 69
-110 1 c-60 1 -124 2 -142 3 l-31 1 1 68 2 67 -70 1 -70 1 -1 59 c-1 32 -2 65
-3 71 -1 9 -20 13 -58 12 -32 -1 -63 -1 -68 0 -7 1 -11 182 -10 559 l0 557 70
5 70 5 -1 138 0 137 67 0 c45 0 68 4 71 13 2 6 4 68 3 137 l-1 125 70 5 70 5
0 68 -1 67 69 0 c58 0 68 3 69 18 1 9 2 71 3 137 l1 120 70 5 70 5 -1 67 -1
67 70 3 71 3 1 62 c0 34 3 64 7 68 4 4 34 7 68 7 37 0 60 5 61 12 1 6 2 34 3
63 0 28 4 55 8 59 5 4 35 6 68 5 67 -2 65 -5 61 87 -2 50 4 53 86 56 l58 1 -1
65 c-1 36 2 67 7 71 5 3 35 4 68 3 38 -1 61 2 64 9 2 7 3 38 2 70 -2 52 0 57
19 58 12 0 43 2 71 2 l49 2 0 65 c0 36 3 67 8 70 4 3 36 5 70 4 l63 -1 0 71 0
71 137 -1 c154 -1 145 -6 143 83 -1 30 3 54 9 56 6 1 36 2 66 2 30 -1 57 2 60
6 3 5 5 35 4 68 -1 39 3 61 10 62 6 1 65 3 131 4 66 1 125 3 130 4 6 0 10 31
10 69 l0 67 115 1 c187 2 168 -5 165 61 -2 31 -1 62 1 68 3 7 48 11 135 10
149 -1 148 -2 143 83 -1 28 0 53 4 53 4 1 66 3 137 4 72 2 132 4 135 4 3 1 6
31 5 69 l0 67 140 1 140 0 0 70 0 69 190 1 c105 1 199 2 210 3 19 1 21 7 20
69 l0 67 202 1 c112 0 206 4 210 8 4 4 8 35 8 69 l0 62 271 1 c149 1 276 4
281 7 5 3 8 33 7 66 -1 48 1 61 15 65 9 2 482 4 1051 3 l1035 -2 0 -62 c0 -34
3 -65 8 -69 4 -4 98 -8 210 -8 l202 -1 -1 -65 c0 -36 3 -67 7 -70 4 -3 66 -5
138 -4 86 1 131 -3 134 -10 2 -6 3 -36 2 -66 -1 -30 2 -57 6 -60 4 -3 60 -4
126 -3 65 1 125 0 134 -3 12 -3 15 -17 14 -62 -1 -31 2 -62 7 -68 5 -7 33 -10
67 -9 68 3 68 2 66 -82 0 -29 4 -54 10 -56 5 -2 36 -3 67 -2 33 1 59 -3 61 -9
1 -6 2 -37 2 -68 -1 -32 4 -59 10 -60 5 -2 36 -3 67 -3 32 0 59 -4 61 -10 2
-5 3 -36 2 -67 0 -33 4 -59 10 -59 5 -1 37 -2 70 -3 l60 -1 0 -140 0 -140 68
0 c37 0 68 -2 68 -5 1 -3 2 -129 3 -280 l1 -275 60 -1 c34 0 65 -3 70 -6 6 -4
10 -89 10 -210 l0 -203 -55 -2 c-30 -1 -62 -2 -70 -2 -13 -1 -16 -14 -15 -68
l0 -68 -890 -2 c-489 -1 -900 -2 -912 -2 -20 -1 -21 -6 -20 -68 l2 -68 -190
-2 c-104 -1 -199 -3 -210 -3 -19 0 -21 -6 -20 -67 l0 -68 -211 -3 -210 -2 1
-58 c0 -31 -1 -63 -3 -69 -3 -10 -40 -13 -141 -13 l-138 0 2 -70 1 -70 -72 0
-72 0 2 -67 1 -68 -141 -5 -141 -5 2 -55 c2 -80 2 -80 -75 -80 l-68 0 2 -60
c1 -33 -1 -65 -4 -70 -3 -5 -35 -10 -70 -12 l-65 -3 -1 -55 c-1 -30 -2 -60 -3
-67 -1 -8 -25 -13 -68 -15 l-68 -3 0 -65 0 -65 -67 -3 c-44 -2 -69 -7 -69 -15
-1 -7 -2 -37 -3 -67 l-1 -55 -70 -5 -70 -5 0 -68 0 -67 -66 0 c-45 0 -68 -4
-71 -12 -3 -7 -4 -69 -4 -138 l2 -125 -71 -5 -70 -5 0 -68 c0 -74 1 -72 -77
-67 -64 4 -65 2 -63 -133 1 -67 0 -129 -2 -137 -3 -12 -17 -15 -56 -13 -83 3
-85 2 -83 -72 1 -36 0 -65 -3 -66 -3 0 -35 -1 -71 -2 l-65 -2 0 -135 c1 -153
4 -148 -81 -144 -33 2 -54 -2 -57 -9 -2 -7 -4 -69 -3 -139 1 -77 -3 -129 -9
-131 -5 -2 -37 -3 -70 -2 l-60 1 0 -130 c1 -72 0 -136 -2 -142 -2 -6 -29 -10
-68 -9 -40 1 -66 -3 -67 -9 0 -6 -2 -69 -2 -141 l-1 -130 -68 0 c-39 1 -68 -3
-68 -10 -1 -5 -3 -93 -4 -195 -1 -102 -3 -193 -4 -202 -1 -14 -12 -16 -68 -15
l-68 2 -1 -190 c-1 -104 -2 -200 -3 -212 -1 -20 -6 -22 -53 -22 -29 1 -60 1
-69 0 -13 -1 -15 -27 -14 -202 0 -110 -3 -205 -6 -211 -3 -5 -29 -8 -57 -6
-29 3 -57 1 -64 -3 -10 -6 -13 -58 -13 -211 l0 -203 -70 -5 -70 -5 -1 -200
c-1 -110 -2 -204 -3 -210 -1 -6 -31 -10 -68 -10 l-68 0 0 -208 0 -207 -40 -1
c-22 0 -53 -2 -70 -2 l-30 -2 0 -202 c0 -111 -3 -205 -8 -209 -4 -4 -35 -8
-70 -8 l-62 -1 0 -275 c0 -151 -3 -277 -7 -280 -4 -3 -35 -5 -67 -4 -49 2 -61
-1 -64 -15 -3 -9 -4 -164 -3 -344 1 -209 -3 -332 -9 -337 -5 -4 -33 -7 -62 -5
-28 1 -56 -1 -61 -4 -4 -3 -8 -161 -8 -351 l0 -345 -59 -1 c-33 -1 -65 -2 -70
-3 -7 -1 -10 -65 -10 -183 1 -257 7 -238 -74 -238 l-67 0 1 -127 c1 -71 -1
-134 -3 -140 -3 -9 -26 -13 -71 -13 l-67 0 1 -57 c1 -32 -1 -64 -3 -70 -3 -9
-26 -13 -71 -13 l-67 0 0 -137 0 -138 -70 -3 -70 -3 1 -67 0 -67 -71 -3 -71
-3 0 -52 c-1 -92 4 -86 -70 -89 l-68 -3 -1 -55 c-1 -30 -2 -61 -3 -67 -1 -9
-22 -13 -69 -13 l-69 0 1 -67 1 -68 -140 -5 -140 -5 0 -65 0 -65 -210 -5 -209
-5 -1 -65 -2 -65 -279 -5 -278 -5 -3 -67 -2 -68 209 0 c193 0 210 -1 211 -17
1 -10 1 -42 2 -70 l1 -53 55 -1 c77 0 1161 0 1186 0 18 1 20 8 20 68 l0 68 70
0 69 0 1 -278 c0 -270 0 -277 -20 -278 -11 -1 -42 -2 -70 -3 l-50 -1 0 -345
c0 -388 7 -359 -82 -354 -32 1 -53 -2 -55 -9 -3 -7 -4 -322 -4 -702 l1 -690
64 -2 c35 -2 67 -6 70 -9 3 -3 6 -128 6 -277 l0 -272 70 -5 70 -5 -1 -203 c0
-117 4 -206 9 -209 5 -3 37 -5 71 -4 l61 2 0 -141 c-1 -119 1 -140 15 -141 8
0 39 0 68 1 28 1 52 -2 53 -7 0 -4 2 -35 2 -68 l2 -60 70 -5 70 -5 -1 -137 -1
-138 31 -1 c17 -1 49 -2 71 -3 l40 -1 -1 -67 c0 -55 3 -68 15 -69 9 0 41 -1
71 -2 l54 -2 0 -67 c-1 -67 -1 -68 25 -69 14 0 46 -1 71 -2 l44 -2 2 -765 c1
-421 2 -768 3 -771 0 -3 30 -5 66 -5 52 1 65 -2 66 -14 1 -8 2 -103 3 -210 l1
-195 35 -2 c19 -1 51 -2 70 -2 l35 -1 0 -207 0 -208 30 -2 c17 0 48 -2 70 -2
l40 -1 0 -420 -1 -419 70 -3 71 -3 0 -347 -1 -348 67 0 c45 0 68 -4 71 -12 2
-7 4 -133 3 -280 0 -148 3 -268 7 -269 4 0 36 -1 70 -2 l62 -2 0 -205 c0 -113
3 -208 8 -211 4 -3 35 -4 67 -4 36 1 61 -2 64 -9 3 -9 2 -111 -2 -126 0 -3
-63 -5 -138 -5 l-138 0 1 -67 c0 -41 -4 -68 -10 -69 -6 -1 -65 -2 -131 -3 -66
-1 -125 -4 -131 -8 -5 -4 -10 -34 -9 -67 1 -34 -1 -61 -4 -62 -3 -1 -98 -2
-211 -2 l-205 -2 0 -70 0 -70 -140 0 -140 0 -1 -60 c-1 -33 -2 -65 -3 -70 -1
-7 -48 -10 -128 -10 -71 1 -133 -1 -139 -2 -7 -3 -10 -27 -9 -61 1 -31 0 -62
-2 -68 -3 -7 -23 -11 -49 -9 -88 4 -92 2 -89 -71 1 -40 -2 -65 -9 -65 -6 -1
-38 -2 -71 -3 l-60 -1 0 -70 -1 -70 -49 -1 c-99 -2 -92 2 -92 -57 -1 -92 4
-85 -68 -83 -37 1 -66 -3 -68 -9 -3 -5 -3 -36 -2 -67 1 -35 -3 -59 -9 -60 -10
-1 -38 -3 -113 -7 -21 -1 -23 -5 -19 -60 1 -33 0 -64 -3 -69 -3 -6 -29 -10
-56 -10 -28 0 -57 0 -66 -1 -13 -1 -15 -21 -15 -139 l1 -137 -65 0 c-36 0 -68
-3 -71 -8 -3 -4 -5 -68 -5 -142 l1 -134 -62 0 c-34 1 -66 -2 -72 -5 -5 -3 -8
-36 -7 -72 l2 -65 -56 1 c-30 1 -62 1 -71 1 -14 -1 -16 -20 -15 -138 l1 -138
-71 -3 -71 -3 1 -207 0 -207 -70 -5 -70 -5 1 -207 0 -208 -70 0 -71 0 1 -272
c1 -150 -2 -278 -7 -283 -4 -6 -29 -10 -55 -9 -85 5 -79 27 -78 -274 1 -147
-1 -272 -2 -278 -3 -7 -26 -10 -61 -9 -31 1 -62 0 -68 -2 -7 -2 -10 -110 -9
-336 0 -183 -1 -339 -3 -348 -3 -13 -17 -16 -70 -15 l-67 0 0 -137 -1 -137
10571 0 10571 0 -1 137 0 137 -67 0 c-38 0 -68 3 -69 6 -1 3 -2 223 -3 490
l-1 485 -60 1 c-33 1 -64 2 -70 3 -6 1 -10 125 -10 350 l0 349 -62 -1 c-35 0
-66 3 -71 7 -4 4 -7 98 -7 209 l0 202 -70 5 -70 5 0 135 0 135 -70 5 -70 5 0
135 0 135 -70 5 -69 5 -1 62 c0 34 -3 64 -6 67 -4 4 -35 8 -70 9 l-63 2 -1
132 c0 72 -3 134 -6 137 -3 3 -34 7 -69 8 l-64 3 -1 65 0 65 -70 5 -70 5 0 67
c0 38 -4 68 -10 69 -5 0 -32 0 -60 0 -27 -1 -55 2 -60 6 -6 5 -10 37 -10 72
l0 64 -50 -1 c-91 -1 -91 -1 -91 74 l1 68 -140 0 -140 1 -1 60 c-1 33 -2 65
-3 70 0 6 -31 10 -68 10 l-67 0 -2 65 c-1 36 -2 67 -3 70 0 3 -63 5 -138 5
l-138 0 1 68 c0 41 -4 67 -10 68 -6 1 -33 2 -61 4 -27 1 -55 3 -61 4 -6 0 -10
27 -10 68 l1 68 -139 0 -140 0 -2 65 c-1 36 -2 67 -3 70 0 3 -60 5 -131 5 -72
-1 -134 2 -138 5 -4 3 -8 34 -8 70 l1 65 -132 0 c-72 0 -135 4 -139 8 -5 5 -9
34 -10 65 -1 31 -2 59 -3 63 0 3 -62 5 -136 4 -116 -1 -135 1 -136 14 -1 9 -2
41 -3 71 l-2 55 -207 0 c-130 0 -207 4 -208 10 -1 6 -3 33 -4 60 -1 28 -3 55
-4 61 -1 7 -48 10 -138 10 l-138 -1 -1 60 c-1 33 -2 65 -3 71 -1 7 -65 10
-193 9 -106 0 -200 1 -209 3 -13 3 -16 15 -14 60 1 31 0 62 -2 68 -3 8 -46 11
-135 10 -71 0 -133 1 -137 4 -4 3 -7 34 -6 70 l0 65 -125 2 c-69 0 -132 1
-141 2 -13 1 -15 14 -14 70 l2 68 -126 1 c-69 0 -133 1 -141 1 -13 1 -16 15
-15 68 l0 68 -133 1 c-72 0 -135 4 -139 8 -4 4 -8 33 -9 64 -1 31 -2 61 -3 65
0 5 -20 8 -43 7 -24 -1 -54 -1 -68 -1 l-26 1 1 140 1 140 -141 0 -141 0 1 68
1 67 491 3 490 2 -2 58 c-1 31 0 63 3 69 3 10 41 13 141 13 l137 0 -2 63 c-1
34 -2 65 -3 70 0 4 -94 7 -209 7 l-207 0 0 70 1 70 -137 0 c-100 0 -138 3
-141 12 -3 7 -4 39 -3 71 l2 57 -68 0 c-76 0 -75 0 -75 80 l1 55 -70 5 -70 5
0 65 0 65 -65 3 c-35 2 -67 8 -71 13 -3 6 -5 37 -4 70 l2 59 -71 0 -72 0 1
140 1 139 -71 3 -70 3 0 137 0 138 -30 1 c-16 1 -46 0 -66 -1 -22 -1 -38 4
-41 12 -2 7 -4 102 -3 210 l0 198 -25 1 c-14 0 -45 1 -70 2 l-45 2 0 347 c0
225 -3 348 -10 349 -5 1 -37 2 -70 3 l-60 1 0 490 0 490 60 1 c33 1 65 2 70 3
7 1 11 29 10 70 l-1 69 64 -2 c35 -1 67 3 71 9 4 5 7 37 7 71 l-2 61 62 0 c33
0 66 3 71 6 6 4 10 36 9 71 l-1 64 63 0 c35 0 66 3 70 7 4 4 7 34 7 68 l0 62
70 1 70 0 0 70 1 69 59 2 c33 1 65 2 71 2 6 1 10 28 9 71 l-1 70 71 0 70 0 0
123 c-1 67 1 130 3 140 4 14 16 17 72 17 l68 0 -2 68 -1 67 70 5 70 5 0 135 0
135 70 5 70 5 0 138 0 137 35 1 c19 1 51 1 70 0 l36 -2 -1 141 c-1 134 0 140
20 141 11 1 43 2 70 2 l50 2 0 278 c0 240 2 277 15 278 8 1 40 2 70 3 l55 1 0
348 c0 191 2 348 5 348 21 6 108 5 120 -2 13 -7 15 -111 15 -843 l0 -836 -70
0 -70 0 0 -277 0 -278 -65 -3 c-35 -2 -67 -7 -70 -12 -3 -5 -5 -68 -5 -139 l0
-131 -66 0 c-76 0 -77 -2 -73 -88 2 -58 8 -55 -87 -53 l-55 1 1 -70 c2 -78 10
-72 -87 -72 -53 1 -50 6 -52 -85 -1 -50 0 -53 24 -54 14 0 108 -1 210 -2 l186
-2 -1 60 c-1 33 0 65 3 71 2 7 27 12 63 12 33 0 63 3 67 7 4 4 7 34 7 68 l0
62 45 1 c108 4 96 -4 96 72 l-1 67 35 2 c19 1 51 2 70 2 l36 1 -1 69 0 69 64
1 c35 0 66 3 70 6 3 4 7 28 7 53 2 87 -3 81 72 84 l67 3 0 65 0 65 70 5 70 5
0 138 0 138 70 -3 70 -3 0 -275 0 -275 -70 -5 -70 -5 0 -137 0 -138 -25 -1
c-14 -1 -44 -1 -66 0 -26 1 -43 -3 -46 -11 -2 -7 -4 -70 -3 -141 1 -70 -1
-127 -4 -128 -3 0 -35 -1 -71 -2 l-65 -2 0 -137 c0 -86 -3 -138 -10 -139 -5
-1 -35 -1 -65 -1 -30 0 -57 -4 -61 -9 -3 -6 -5 -37 -3 -69 2 -67 9 -62 -88
-62 -27 0 -49 -4 -49 -9 -5 -36 -4 -116 2 -124 4 -6 63 -10 141 -10 l133 0 0
70 0 70 140 1 140 1 0 69 0 69 70 1 70 0 0 70 0 69 65 2 c36 0 67 2 70 2 3 1
6 31 5 69 l0 67 65 2 c36 1 68 2 71 2 3 1 6 31 5 69 l-1 67 45 2 c25 1 57 2
71 2 26 1 26 3 24 59 -1 31 0 62 3 69 2 7 23 12 50 11 97 0 88 -16 87 141 l0
139 64 1 c35 0 66 3 70 6 3 4 7 28 7 53 2 87 -3 81 72 84 l67 3 0 138 0 137
70 0 71 0 -1 140 0 140 70 0 71 0 -1 206 c0 113 2 207 6 210 4 2 36 5 71 6
l63 2 0 208 c0 132 4 208 10 209 5 0 37 1 70 2 l60 2 0 772 0 772 -67 -3 c-41
-1 -69 2 -71 8 -3 10 -1 528 2 549 0 4 31 7 69 5 l67 -3 0 -135 c0 -74 3 -137
7 -140 4 -3 35 -5 70 -4 l64 2 -1 -132 c-1 -72 2 -136 6 -141 5 -6 35 -10 68
-9 67 2 69 0 66 -66 -3 -70 4 -77 74 -74 41 2 61 -1 62 -9 1 -7 2 -70 3 -142
l1 -130 68 0 c40 1 68 -3 68 -10 1 -5 3 -62 4 -125 1 -63 3 -122 4 -131 1 -14
11 -16 54 -14 84 5 83 5 82 -144 0 -82 4 -132 10 -132 5 -1 30 -3 55 -4 25 -2
52 -3 61 -4 13 -1 15 -34 15 -278 l-1 -278 70 -1 70 0 0 -413 c1 -226 -2 -416
-5 -421 -3 -5 -35 -10 -70 -12 l-65 -3 0 -415 0 -415 -65 -3 c-35 -2 -67 -7
-70 -12 -3 -4 -5 -66 -5 -137 l0 -128 43 -6 c23 -3 55 -4 71 -1 27 4 28 5 26
60 -2 73 2 84 34 82 14 -1 44 -2 66 -1 l41 1 -1 138 0 137 60 3 c33 1 65 4 70
6 7 2 10 55 10 137 l0 134 70 5 70 5 0 135 0 135 70 5 70 5 0 132 c0 72 3 135
7 138 4 4 36 7 70 6 l64 -1 -1 210 0 210 45 1 c25 1 56 0 70 0 l25 -2 -1 838
c-1 461 -2 841 -3 844 0 3 -31 5 -68 5 l-68 -1 0 210 0 210 -62 0 c-34 1 -66
4 -70 9 -4 4 -8 67 -8 139 l0 132 -70 5 -70 5 0 135 0 135 -64 2 c-35 1 -66 5
-70 8 -3 4 -6 66 -6 138 l0 132 -70 5 -70 5 1 195 c0 107 -2 201 -4 208 -3 8
-26 12 -71 12 l-67 0 1 140 2 140 -68 0 c-45 0 -68 4 -71 13 -2 6 -4 69 -3
140 l1 127 -67 0 c-45 0 -68 4 -71 13 -2 6 -4 68 -3 137 l1 125 71 3 70 3 -1
-68 -1 -68 140 -5 140 -5 0 -55 c-1 -30 1 -61 3 -67 3 -10 40 -13 141 -13
l137 0 -1 -67 0 -68 281 -5 280 -5 -1 -67 -1 -68 981 0 982 0 -1 68 -1 67 283
3 282 2 0 70 0 70 -282 2 -283 3 1 67 1 68 -421 2 -421 3 1 68 1 67 -207 0
c-157 0 -209 3 -212 13 -2 6 -4 37 -3 67 l1 55 -140 5 -141 5 0 68 1 67 -51 1
c-27 0 -89 0 -136 0 -61 -1 -88 3 -92 12 -2 6 -3 38 -1 69 l2 57 -71 3 -72 3
1 68 c0 54 -3 67 -15 68 -9 1 -72 2 -141 3 l-125 1 1 68 c0 54 -3 67 -15 68
-9 1 -41 2 -71 3 l-55 1 1 68 c0 40 -4 67 -10 68 -6 0 -36 2 -66 3 -30 2 -57
4 -60 5 -3 0 -5 32 -5 69 l1 68 -67 -1 c-41 -1 -70 3 -72 9 -2 6 -3 37 -2 69
1 41 -2 57 -12 58 -7 1 -37 1 -65 2 -29 0 -56 5 -59 9 -3 5 -5 36 -4 68 1 33
-1 60 -4 61 -3 0 -32 2 -63 2 -31 1 -60 6 -64 10 -5 4 -8 36 -9 70 l0 62 -60
1 c-33 1 -65 2 -71 3 -6 0 -10 26 -9 66 1 41 -2 65 -9 66 -6 1 -38 2 -71 3
l-59 1 -1 140 0 140 -60 1 c-33 1 -64 2 -70 3 -6 0 -10 54 -10 138 l0 138 -65
1 c-36 1 -67 2 -70 3 -3 1 -5 63 -5 139 l0 137 -70 1 -70 1 -1 129 c-1 71 -2
135 -3 141 -1 9 -19 12 -61 11 -32 -1 -63 1 -67 6 -4 4 -8 98 -8 209 l0 202
-64 2 c-35 1 -66 5 -70 8 -3 4 -6 66 -6 138 l0 132 -63 1 c-35 1 -66 5 -70 8
-3 4 -7 98 -7 209 l0 202 -70 5 -70 5 0 135 0 135 -70 5 -70 5 0 132 c0 72 -3
134 -7 138 -4 4 -35 8 -70 9 l-63 1 0 200 c0 110 -3 205 -7 210 -4 6 -33 10
-66 8 -49 -2 -61 1 -64 15 -2 9 -4 72 -3 140 1 81 -2 122 -9 123 -6 1 -33 2
-61 4 -27 1 -55 3 -60 3 -7 1 -10 99 -10 279 l0 278 -70 0 -70 1 0 139 0 140
-70 0 -69 0 -1 140 0 140 -65 0 c-45 0 -67 4 -70 13 -3 8 -5 71 -5 141 l1 128
-64 -1 c-35 -1 -67 4 -70 9 -4 6 -7 35 -8 65 -1 30 -2 58 -3 62 0 4 -18 6 -38
6 -21 -1 -52 0 -68 1 l-30 1 0 138 0 137 -71 3 -71 3 2 57 c3 80 1 84 -59 82
-87 -3 -82 -6 -81 58 2 81 0 84 -59 82 -87 -3 -81 -7 -81 68 l0 67 -67 3 c-38
2 -69 6 -69 10 -1 4 -2 34 -3 67 l-1 60 -65 3 c-35 2 -67 7 -71 13 -3 5 -5 36
-4 69 l1 60 -67 0 c-76 0 -76 0 -74 80 l0 55 -140 5 -140 5 1 67 0 67 -70 3
-71 3 0 68 1 67 -137 0 c-101 0 -138 3 -141 13 -2 6 -4 37 -4 67 l1 55 -140 5
-140 5 0 65 0 65 -140 5 -140 5 0 65 0 65 -280 5 -280 5 0 68 1 67 -767 0
c-605 0 -768 3 -771 13 -3 6 -4 37 -3 67 l1 55 -421 5 -420 5 0 68 1 67 -101
0 c-55 1 -275 2 -490 3 l-390 2 1 68 1 67 -176 1 c-97 0 -349 1 -561 2 l-385
2 -1 68 c0 58 2 67 18 68 10 0 42 1 71 2 l52 0 0 488 c0 426 -2 488 -15 492
-8 2 -39 3 -67 2 -29 -1 -54 1 -54 4 -1 3 -3 128 -4 276 -1 149 -3 273 -4 276
0 3 -28 5 -61 4 -35 -1 -64 3 -68 9 -4 6 -7 38 -7 71 l0 60 -70 0 -70 1 -1
132 c-1 73 -2 136 -3 141 0 5 -27 8 -58 7 -32 -1 -63 -1 -68 1 -6 2 -10 29
-10 61 1 31 0 62 -3 69 -2 7 -26 11 -60 11 -31 0 -62 0 -67 1 -6 1 -10 26 -10
59 0 31 -1 62 -3 68 -2 8 -44 12 -125 12 -67 0 -129 1 -137 1 -13 1 -16 15
-15 69 0 75 8 69 -90 71 l-51 1 1 68 0 67 -203 1 c-111 1 -206 4 -210 8 -4 4
-7 35 -7 69 l-1 62 -79 2 c-44 1 -107 2 -140 2 l-61 1 1 58 c1 31 0 62 -2 68
-3 9 -99 12 -344 12 -187 0 -343 3 -347 7 -4 4 -7 34 -7 68 l0 62 -770 3 -771
2 1 -66z m-4 -18753 c1 -9 2 -41 3 -71 l1 -55 68 1 c40 0 67 -4 68 -10 1 -6 2
-38 3 -71 l1 -60 70 0 71 0 -2 -60 c0 -33 1 -65 3 -70 2 -6 32 -10 68 -10 72
1 67 8 69 -85 l1 -55 70 0 70 0 -1 -68 c0 -37 2 -68 5 -68 3 -1 33 -3 66 -4
33 -2 63 -3 66 -4 3 0 5 -27 4 -58 -1 -32 0 -63 2 -69 3 -8 26 -11 61 -10 31
1 62 1 68 -1 6 -2 10 -28 9 -61 -1 -31 0 -62 2 -68 3 -8 48 -11 139 -10 74 0
134 -1 135 -4 0 -3 2 -34 3 -70 l1 -65 270 0 c149 0 275 -3 280 -7 6 -3 10
-35 10 -70 l0 -63 -53 -2 c-28 0 -60 -1 -70 -2 -16 -1 -18 -9 -17 -58 2 -83 3
-83 -74 -81 l-66 2 0 -69 0 -70 -115 -2 c-63 0 -127 -2 -141 -2 -25 -1 -26 -3
-25 -68 l1 -68 -71 -3 -72 -3 2 -67 1 -67 -70 -5 -70 -5 -1 -65 0 -65 -70 -5
-69 -5 0 -125 c1 -69 -1 -131 -3 -137 -3 -9 -26 -13 -72 -13 l-67 0 1 -67 1
-68 -70 -5 -70 -5 0 -65 0 -65 -72 -3 -71 -3 1 -67 2 -67 -71 -3 -70 -3 1 210
1 210 -71 3 -70 3 -1 340 c-1 187 -2 345 -3 350 -1 7 -26 9 -66 7 -36 -2 -66
0 -66 5 -3 15 -6 1528 -3 1533 1 3 32 5 68 6 54 1 66 -2 67 -15z m1960 -973
c1 -4 2 -35 3 -68 1 -69 -1 -71 -89 -67 l-50 3 0 64 c0 55 3 66 18 70 30 8
117 6 118 -2z m-2796 -1258 l-1 -139 70 -3 71 -3 0 -137 -1 -137 70 -3 70 -3
0 -137 0 -138 67 0 c44 0 68 -4 72 -12 2 -7 3 -39 2 -70 l-2 -58 68 0 c48 0
69 -4 70 -12 1 -7 2 -38 3 -68 l1 -55 70 -5 70 -5 -1 -137 0 -138 25 -1 c14 0
45 0 69 1 23 1 42 -2 43 -7 0 -4 2 -36 3 -70 l1 -63 -130 0 c-71 0 -135 -4
-141 -8 -6 -4 -10 -35 -10 -70 l1 -62 -50 -1 c-27 0 -122 -1 -210 -2 l-160 -2
1 -67 c0 -38 -2 -68 -5 -69 -10 -1 -115 -1 -126 0 -7 1 -10 140 -10 409 1 224
-1 413 -3 420 -3 8 -26 12 -71 12 l-66 0 0 490 -1 490 71 0 71 0 -1 -140z"/>
<path d="M7557 23281 c-2 -3 -3 -35 -3 -70 l1 -64 58 1 c31 0 63 1 70 1 9 1
12 21 12 69 l-1 67 -67 1 c-37 1 -69 -2 -70 -5z"/>
</g>
</svg>
